<svg width="608" height="608" viewBox="0 0 608 608" fill="none" xmlns="http://www.w3.org/2000/svg">
<path d="M608 304C608 471.895 471.895 608 304 608C136.105 608 0 471.895 0 304C0 136.105 136.105 0 304 0C471.895 0 608 136.105 608 304Z" fill="#D9D9D9"/>
<path d="M415.6 296.824L358.362 297.76L148.927 488.56H177.265C189.463 488.56 204.075 491.495 219.095 479.198L300.166 405.05C331.102 437.663 348.446 455.948 379.381 488.56H470.774L348.416 358.989L415.6 296.824Z" fill="#252422"/>
<path d="M134.88 183.037V146.337C134.88 126.115 145.765 119 161.717 119C177.668 119 189.303 119 211.073 119C232.842 119 236.595 128.737 236.595 146.337V169.181C236.595 180.415 225.3 186.392 224.397 187.156L296.057 262.212L244.045 309.744L142.762 202.51C137.284 195.21 136.05 190.884 134.88 183.037Z" fill="url(#paint0_linear_512_45)"/>
<path d="M239.945 320.417L340.525 228.668L381.309 269.487C381.309 269.487 169.06 463.47 151.043 479.573C133.027 495.675 111.446 487.25 103.189 479.573C94.9312 471.896 82.7046 446.618 95.6537 433.885C108.603 421.153 196.271 341.762 206.217 332.587C216.163 323.412 228.732 325.755 239.945 320.417Z" fill="url(#paint1_linear_512_45)"/>
<path d="M299.917 259.035L263.403 220.833L355.115 137.111C367.508 126.195 373.949 119.258 386.268 119.131C398.586 119.004 517.935 119.131 517.935 119.131L370.479 251.915L341.016 221.582L299.917 259.035Z" fill="#252422"/>
<defs>
<linearGradient id="paint0_linear_512_45" x1="-69.3758" y1="-119.965" x2="521.037" y2="818.652" gradientUnits="userSpaceOnUse">
<stop stop-color="#252422"/>
<stop offset="0.732598" stop-color="#457B9D"/>
<stop offset="1" stop-color="#EBEBEB"/>
</linearGradient>
<linearGradient id="paint1_linear_512_45" x1="76.4873" y1="528.32" x2="636.749" y2="23.86" gradientUnits="userSpaceOnUse">
<stop stop-color="#252422"/>
<stop offset="0.630364" stop-color="#457B9D"/>
<stop offset="1" stop-color="#EBEBEB"/>
</linearGradient>
</defs>
</svg>
